<?xml version="1.0" encoding="UTF-8" standalone="no"?>
<!-- Created with Inkscape (http://www.inkscape.org/) -->

<svg
   width="512"
   height="512"
   viewBox="0 0 512 512"
   version="1.1"
   id="svg1"
   xml:space="preserve"
   inkscape:version="1.4.1 (93de688d07, 2025-03-30)"
   sodipodi:docname="Parch-Welcome-Light.svg"
   inkscape:export-filename="Parch-Welcome-Light_512x512.png"
   inkscape:export-xdpi="96"
   inkscape:export-ydpi="96"
   xmlns:inkscape="http://www.inkscape.org/namespaces/inkscape"
   xmlns:sodipodi="http://sodipodi.sourceforge.net/DTD/sodipodi-0.dtd"
   xmlns="http://www.w3.org/2000/svg"
   xmlns:svg="http://www.w3.org/2000/svg"><sodipodi:namedview
     id="namedview1"
     pagecolor="#505050"
     bordercolor="#ffffff"
     borderopacity="1"
     inkscape:showpageshadow="0"
     inkscape:pageopacity="0"
     inkscape:pagecheckerboard="1"
     inkscape:deskcolor="#505050"
     inkscape:document-units="px"
     inkscape:zoom="1.5064523"
     inkscape:cx="276.47739"
     inkscape:cy="257.22686"
     inkscape:window-width="1536"
     inkscape:window-height="802"
     inkscape:window-x="0"
     inkscape:window-y="0"
     inkscape:window-maximized="1"
     inkscape:current-layer="layer1" /><defs
     id="defs1"><inkscape:path-effect
       effect="bspline"
       id="path-effect11"
       is_visible="true"
       lpeversion="1.3"
       weight="33.333333"
       steps="2"
       helper_size="0"
       apply_no_weight="true"
       apply_with_weight="true"
       only_selected="false"
       uniform="false" /><inkscape:path-effect
       effect="bspline"
       id="path-effect3"
       is_visible="true"
       lpeversion="1.3"
       weight="33.333333"
       steps="2"
       helper_size="0"
       apply_no_weight="true"
       apply_with_weight="true"
       only_selected="false"
       uniform="false" /><filter
       inkscape:collect="always"
       style="color-interpolation-filters:sRGB"
       id="filter1"
       x="-0.075"
       y="-0.075"
       width="1.15"
       height="1.15"><feGaussianBlur
         inkscape:collect="always"
         stdDeviation="15.965698"
         id="feGaussianBlur1" /></filter><inkscape:path-effect
       effect="fillet_chamfer"
       id="path-effect3-3"
       is_visible="true"
       lpeversion="1"
       nodesatellites_param="F,0,0,1,0,0,0,1 @ F,0,0,1,0,0,0,1 @ F,0,0,1,0,0,0,1 @ F,0,0,1,0,0,0,1 @ F,0,0,1,0,0,0,1 @ F,0,0,1,0,0,0,1 @ F,0,0,1,0,0,0,1 @ F,0,0,1,0,1.1038892,0,1 @ F,0,1,1,0,1.1038892,0,1 @ F,0,0,1,0,0,0,1 @ F,0,0,1,0,0,0,1 @ F,0,0,1,0,0,0,1 @ F,0,0,1,0,0,0,1 @ F,0,0,1,0,0,0,1 @ F,0,0,1,0,0,0,1 @ F,0,0,1,0,0,0,1"
       radius="0"
       unit="px"
       method="auto"
       mode="F"
       chamfer_steps="1"
       flexible="false"
       use_knot_distance="true"
       apply_no_radius="true"
       apply_with_radius="true"
       only_selected="false"
       hide_knots="false" /><inkscape:path-effect
       effect="bspline"
       id="path-effect1"
       is_visible="true"
       lpeversion="1.3"
       weight="33.333333"
       steps="2"
       helper_size="0"
       apply_no_weight="true"
       apply_with_weight="true"
       only_selected="false"
       uniform="false" /><inkscape:path-effect
       effect="bspline"
       id="path-effect11-1"
       is_visible="true"
       lpeversion="1.3"
       weight="33.333333"
       steps="2"
       helper_size="0"
       apply_no_weight="true"
       apply_with_weight="true"
       only_selected="false"
       uniform="false" /><inkscape:path-effect
       effect="bspline"
       id="path-effect11-2"
       is_visible="true"
       lpeversion="1.3"
       weight="33.333333"
       steps="2"
       helper_size="0"
       apply_no_weight="true"
       apply_with_weight="true"
       only_selected="false"
       uniform="false" /><inkscape:path-effect
       effect="bspline"
       id="path-effect11-1-3"
       is_visible="true"
       lpeversion="1.3"
       weight="33.333333"
       steps="2"
       helper_size="0"
       apply_no_weight="true"
       apply_with_weight="true"
       only_selected="false"
       uniform="false" /></defs><g
     inkscape:label="Layer 1"
     inkscape:groupmode="layer"
     id="layer1"><circle
       style="fill:#000000;fill-opacity:0.452484;stroke:#000000;stroke-width:0;stroke-linecap:round;stroke-dasharray:none;stroke-opacity:1;paint-order:markers fill stroke;filter:url(#filter1)"
       id="path1-3"
       cx="293.76886"
       cy="293.76886"
       r="255.45117"
       inkscape:transform-center-x="0.23802658"
       inkscape:transform-center-y="0.22635918"
       transform="matrix(0.87143345,0,0,0.87143345,1.3736595e-6,1.3736595e-6)" /><circle
       style="fill:#cfeaff;fill-opacity:1;stroke:#000000;stroke-width:0;stroke-linecap:round;stroke-dasharray:none;stroke-opacity:1;paint-order:markers fill stroke"
       id="path1"
       cx="256"
       cy="256"
       r="222.60869"
       inkscape:transform-center-x="0.238039"
       inkscape:transform-center-y="0.22634676" /><path
       d="M 389.76617,229.93499 H 122.23383 v 123.02538 c 0,25.65624 24.57677,46.31136 55.10421,46.31136 h 157.32392 c 30.52743,0 55.10421,-20.65512 55.10421,-46.31136 z"
       style="fill:#1d9ffb;fill-opacity:1;stroke:none;stroke-width:10.5359;stroke-linecap:round;stroke-linejoin:round;stroke-dasharray:none;stroke-opacity:1;paint-order:stroke fill markers"
       id="path10" /><path
       d="m 170.24557,148.12008 c -33.27992,0 -60.07262,26.79271 -60.07262,60.07263 v 10.84777 h 291.6541 v -10.84777 c 0,-33.27992 -26.7927,-60.07263 -60.07263,-60.07263 z"
       style="fill:#1d9ffb;fill-opacity:1;stroke:none;stroke-width:11.4927;stroke-linecap:round;stroke-linejoin:round;stroke-dasharray:none;stroke-opacity:1;paint-order:stroke fill markers"
       id="path5" /><rect
       style="fill:#cfeaff;fill-opacity:1;stroke:none;stroke-width:9.96561;stroke-linecap:round;stroke-linejoin:round;stroke-dasharray:none;stroke-opacity:1;paint-order:stroke fill markers"
       id="rect18-3"
       width="57.42535"
       height="25.701061"
       x="227.28732"
       y="377.2308"
       ry="0" /><rect
       style="fill:#cfeaff;fill-opacity:1;stroke:none;stroke-width:9.96561;stroke-linecap:round;stroke-linejoin:round;stroke-dasharray:none;stroke-opacity:1;paint-order:stroke fill markers"
       id="rect18-3-3"
       width="57.42535"
       height="25.701061"
       x="227.28732"
       y="226.97672"
       ry="0" /><path
       id="path1-3-6"
       style="display:inline;fill:#cfeaff;fill-opacity:1;stroke-width:0.21312"
       d="m 274.24668,264.96014 c -0.40424,-0.005 -0.8081,-0.004 -1.21145,0.003 -12.10016,0.1861 -23.76367,5.17273 -32.70046,14.04559 -1.14365,1.13548 -2.22765,2.32649 -3.25737,3.56196 l 10.49363,11.63642 -14.36766,-6.32564 c -5.18032,8.09627 -8.19843,17.63608 -8.57315,27.57566 -0.23001,6.38257 0.6407,12.64879 2.47408,18.53252 l 20.20771,-11.55466 c 0,0 -4.42803,3.54804 -8.88085,8.38654 -0.50902,0.5531 -1.01608,1.12745 -1.51915,1.71076 -0.0854,0.0992 -0.16906,0.19895 -0.25404,0.29896 -0.49153,0.57695 -0.97564,1.16381 -1.44674,1.76258 -0.005,0.006 -0.01,0.0124 -0.015,0.0187 -0.091,0.11578 -0.18465,0.22931 -0.27462,0.34577 -0.21594,0.27994 -0.42198,0.56355 -0.631,0.84696 -0.19775,0.2677 -0.39433,0.53487 -0.58482,0.80513 -0.0517,0.0733 -0.0998,0.14741 -0.15042,0.22094 -0.12153,0.17649 -0.2429,0.35238 -0.362,0.5299 -0.289,0.43012 -0.57504,0.86022 -0.84009,1.29384 -0.0328,0.0536 -0.0638,0.10673 -0.0961,0.1604 -0.35384,0.58644 -0.68279,1.17462 -0.98302,1.76256 -8e-4,0.002 -0.002,0.004 -0.003,0.005 -0.29292,0.57398 -0.56112,1.14762 -0.79327,1.71825 1.30282,2.57601 2.81215,5.03333 4.50752,7.34984 0.40951,0.55954 0.83373,1.10783 1.26512,1.65023 0.11319,0.14231 0.22911,0.28217 0.34391,0.42317 0.0791,0.0972 0.15672,0.19543 0.23655,0.29209 0.45614,0.55286 0.92015,1.09962 1.39931,1.63274 0.13965,0.15518 0.2847,0.3053 0.42628,0.45875 0.43463,0.47164 0.87853,0.93445 1.33129,1.38933 0.14508,0.14556 0.28811,0.29309 0.43503,0.43689 0.55847,0.54729 1.13142,1.08062 1.71638,1.60154 0.1377,0.12251 0.27715,0.24285 0.41629,0.36387 0.6235,0.5427 1.25617,1.07561 1.90862,1.58719 4.23042,3.01471 9.36953,5.2123 15.47674,5.44123 17.34035,0.65832 27.01067,-12.66506 27.45146,-27.58315 0.091,-3.08031 -0.27948,-6.04635 -0.97115,-8.95076 l -18.82088,2.42728 0.20221,-0.11672 15.72329,-10.65279 c -0.40854,-0.9137 -0.84961,-1.8256 -1.3057,-2.73684 -0.059,-0.118 -0.1206,-0.2359 -0.181,-0.35389 -0.42026,-0.82925 -0.85773,-1.65911 -1.31131,-2.48906 -0.14059,-0.25722 -0.27846,-0.51462 -0.42193,-0.77205 -1.00348,-1.80073 -2.0746,-3.60883 -3.18934,-5.43313 -0.13717,-0.22448 -0.27581,-0.44954 -0.41442,-0.67469 -0.03,-0.0487 -0.06,-0.0975 -0.0899,-0.14604 -1.10708,-1.7976 -2.24678,-3.61145 -3.40405,-5.45747 -1.39212,-2.22065 -2.79897,-4.47974 -4.18671,-6.80747 -6.08255,-10.20248 -2.83065,-26.46375 8.66366,-30.05037 -0.74056,-0.065 -1.48232,-0.1116 -2.22505,-0.14042 -0.40494,-0.0153 -0.80971,-0.0254 -1.21395,-0.0299 z m -37.36027,67.60224 c -0.0669,0.0776 -0.13313,0.156 -0.19972,0.23405 0.0667,-0.0785 0.13277,-0.15608 0.19972,-0.23405 z" /><path
       style="opacity:0.249717;fill:#000000;fill-opacity:1;stroke:none;stroke-width:61.0374;stroke-linecap:square;stroke-miterlimit:3.8;stroke-opacity:1;paint-order:stroke markers fill"
       id="path4"
       sodipodi:type="arc"
       sodipodi:cx="256.42737"
       sodipodi:cy="-148.12009"
       sodipodi:rx="85.327042"
       sodipodi:ry="20.117393"
       sodipodi:start="3.1415927"
       sodipodi:end="6.2831853"
       sodipodi:arc-type="arc"
       d="m 171.10033,-148.12009 a 85.327042,20.117393 0 0 1 85.32704,-20.11739 85.327042,20.117393 0 0 1 85.32704,20.11739"
       transform="scale(1,-1)"
       sodipodi:open="true" /><g
       id="g11"
       style="stroke:#0d466f;stroke-opacity:1"
       transform="translate(0,2)"><path
         d="m 258.2001,149.53291 c 25.34776,7.21508 76.1531,-9.46117 62.06128,-35.24586 -14.09185,-25.784709 -54.44556,10.01561 -62.06128,35.24586 z"
         style="fill:none;stroke:#1d9ffb;stroke-width:15;stroke-linecap:round;stroke-linejoin:round;stroke-dasharray:none;stroke-opacity:1;paint-order:stroke fill markers"
         id="path15"
         sodipodi:nodetypes="csc" /><path
         d="m 256,147.49445 c -24.8792,8.69432 -76.5779,-4.96309 -64.02796,-31.53241 12.54997,-26.569335 54.94061,6.79407 64.02796,31.53241 z"
         style="fill:none;stroke:#1d9ffb;stroke-width:15;stroke-linecap:round;stroke-linejoin:round;stroke-dasharray:none;stroke-opacity:1;paint-order:stroke fill markers"
         id="path15-1"
         sodipodi:nodetypes="csc" /><path
         style="fill:none;fill-opacity:1;stroke:#cfeaff;stroke-width:15;stroke-linecap:round;stroke-miterlimit:3.8;stroke-dasharray:none;stroke-opacity:1;paint-order:stroke markers fill"
         d="m -132.46868,195.59245 c -4.73063,9.14934 -9.46125,18.29869 -15.56386,25.00453 -6.10261,6.70584 -13.57689,10.96801 -21.05133,15.23027"
         id="path11"
         inkscape:label="path11"
         transform="translate(388.46867,-43.47237)" /><path
         style="fill:none;fill-opacity:1;stroke:#cfeaff;stroke-width:15;stroke-linecap:round;stroke-miterlimit:3.8;stroke-dasharray:none;stroke-opacity:1;paint-order:stroke markers fill"
         d="m -132.46868,195.59245 c -4.73063,9.14934 -9.46125,18.29869 -15.56386,25.00453 -6.10261,6.70584 -13.57689,10.96801 -21.05133,15.23027"
         id="path11-9"
         transform="matrix(-1,0,0,1,124.73633,-43.47237)" /><circle
         style="opacity:1;fill:#1d9ffb;fill-opacity:1;stroke:none;stroke-width:15;stroke-linecap:round;stroke-miterlimit:3.8;stroke-dasharray:none;stroke-opacity:1;paint-order:stroke markers fill"
         id="path12"
         cx="256.74673"
         cy="147.27429"
         r="19.054348"
         inkscape:label="path12" /></g></g></svg>
